<svg xmlns="http://www.w3.org/2000/svg" viewBox="0 0 290.412 290.504"><defs><style>.cls-1{opacity:0.87;}</style></defs><title>management</title><g id="Layer_2" data-name="Layer 2"><g id="Layer_1-2" data-name="Layer 1"><g class="cls-1"><path d="M153.73,0c5.507.744,11.049,1.292,16.516,2.265,33.4,5.94,61.366,21.73,83.834,47.064,20.558,23.181,32.553,50.362,35.561,81.162,3.691,37.8-5.865,72.208-28.911,102.476-21.79,28.62-50.457,47.088-85.731,54.273-42.988,8.755-82.5-.1-117.542-26.563C28.927,239.133,10.906,210.5,3.3,175.507c-1.339-6.161-1.861-12.5-2.771-18.754C.38,155.741.177,154.737,0,153.73q0-8.509,0-17.018c.234-2.044.473-4.087.7-6.131C4.178,99.333,16.114,71.769,37.176,48.4,59.539,23.587,87.246,8.1,120.211,2.262c5.463-.967,11-1.519,16.5-2.262ZM281.065,145.2C281.022,70.3,220.037,9.334,145.2,9.377,70.3,9.42,9.334,70.405,9.377,145.239c.043,74.9,61.027,135.868,135.862,135.825C220.139,281.022,281.107,220.038,281.065,145.2Z"/><path d="M216.588,95.2l6.577,6.561-104.69,104.69L67,154.942l5.949-5.527,44.694,44.695Z"/></g></g></g></svg>