<svg xmlns="http://www.w3.org/2000/svg" viewBox="0 0 358 263.667"><defs><style>.cls-1{fill:#111;}</style></defs><title>management</title><g id="Layer_2" data-name="Layer 2"><g id="Layer_1-2" data-name="Layer 1"><path class="cls-1" d="M107.7,213.817l-12.175-3.475a43.988,43.988,0,1,0-63.05.025L20.3,213.842A27.953,27.953,0,0,0,0,240.742v6.925a16.015,16.015,0,0,0,16,16h96a16.015,16.015,0,0,0,16-16v-6.925A28.006,28.006,0,0,0,107.7,213.817ZM28,179.667a36,36,0,1,1,36,36A36.009,36.009,0,0,1,28,179.667Zm83.429,76.216H15.784a8,8,0,0,1-8-8v-6.522a19.535,19.535,0,0,1,14.45-18.705l17.39-4.841a44.813,44.813,0,0,0,47.886,0l17.39,4.841a19.535,19.535,0,0,1,14.45,18.705V248.1h.05A7.871,7.871,0,0,1,111.429,255.883Z"/><path class="cls-1" d="M337.7,213.817l-12.175-3.475a43.988,43.988,0,1,0-63.05.025L250.3,213.842a27.953,27.953,0,0,0-20.3,26.9v6.925a16.015,16.015,0,0,0,16,16h96a16.015,16.015,0,0,0,16-16v-6.925A28.006,28.006,0,0,0,337.7,213.817ZM258,179.667a36,36,0,1,1,36,36A36.009,36.009,0,0,1,258,179.667Zm83.429,76.216H245.784a8,8,0,0,1-8-8v-6.522a19.535,19.535,0,0,1,14.45-18.705l17.39-4.841a44.813,44.813,0,0,0,47.886,0l17.39,4.841a19.535,19.535,0,0,1,14.45,18.705V248.1h.05A7.871,7.871,0,0,1,341.429,255.883Z"/><path class="cls-1" d="M240.96,36.306,217.75,4.393A10.667,10.667,0,0,0,209.124,0H148.876a10.666,10.666,0,0,0-8.626,4.393L117.04,36.306A10.666,10.666,0,0,0,115,42.58V74.667a10.667,10.667,0,0,0,10.667,10.667H232.333A10.667,10.667,0,0,0,243,74.667V42.58A10.666,10.666,0,0,0,240.96,36.306ZM146,8.575a3.566,3.566,0,0,1,2.876-1.464h60.248A3.566,3.566,0,0,1,212,8.575l19.622,26.98h-30.35l-7.111,14.222H163.839l-7.111-14.222h-30.35Zm89.888,37.647V74.667a3.56,3.56,0,0,1-3.556,3.556H125.667a3.56,3.56,0,0,1-3.556-3.556V46.222a3.555,3.555,0,0,1,3.556-3.556h26.667l7.111,14.222h39.111l7.111-14.222h26.667A3.555,3.555,0,0,1,235.889,46.222Z"/></g></g></svg>