<svg xmlns="http://www.w3.org/2000/svg" viewBox="0 0 346 346"><defs><style>.cls-1{fill:none;stroke:#fff;stroke-miterlimit:10;stroke-width:4px;stroke-dasharray:24.42 24.42;}.cls-2{fill:#fff;}</style></defs><title>users</title><g id="Layer_2" data-name="Layer 2"><g id="Layer_1-2" data-name="Layer 1"><circle class="cls-1" cx="173" cy="173" r="171"/><path class="cls-2" d="M201,73.065l-7.8-2.226a28.18,28.18,0,1,0-40.391.016L145,73.081a17.907,17.907,0,0,0-13,17.233V94.75A10.26,10.26,0,0,0,142.25,105h61.5A10.26,10.26,0,0,0,214,94.75V90.314A17.941,17.941,0,0,0,201,73.065ZM149.937,51.188A23.062,23.062,0,1,1,173,74.25,23.068,23.068,0,0,1,149.937,51.188Zm53.446,48.826H142.111a5.125,5.125,0,0,1-5.125-5.125V90.711a12.515,12.515,0,0,1,9.257-11.983l11.141-3.1a28.708,28.708,0,0,0,30.677,0l11.141,3.1a12.515,12.515,0,0,1,9.257,11.983v4.316h.032A5.043,5.043,0,0,1,203.384,100.014Z"/><path class="cls-2" d="M111,125.065l-7.8-2.226a28.18,28.18,0,1,0-40.391.016L55,125.081a17.907,17.907,0,0,0-13,17.233v4.436A10.26,10.26,0,0,0,52.25,157h61.5A10.26,10.26,0,0,0,124,146.75v-4.436A17.941,17.941,0,0,0,111,125.065ZM59.937,103.188A23.062,23.062,0,1,1,83,126.25,23.068,23.068,0,0,1,59.937,103.188Zm53.446,48.826H52.111a5.125,5.125,0,0,1-5.125-5.125v-4.178a12.515,12.515,0,0,1,9.257-11.983l11.141-3.1a28.708,28.708,0,0,0,30.677,0l11.141,3.1a12.515,12.515,0,0,1,9.257,11.983v4.316h.032A5.043,5.043,0,0,1,113.384,152.014Z"/><path class="cls-2" d="M111,227.065l-7.8-2.226a28.18,28.18,0,1,0-40.391.016L55,227.081a17.907,17.907,0,0,0-13,17.233v4.436A10.26,10.26,0,0,0,52.25,259h61.5A10.26,10.26,0,0,0,124,248.75v-4.436A17.941,17.941,0,0,0,111,227.065ZM59.937,205.188A23.062,23.062,0,1,1,83,228.25,23.068,23.068,0,0,1,59.937,205.188Zm53.446,48.826H52.111a5.125,5.125,0,0,1-5.125-5.125v-4.178a12.515,12.515,0,0,1,9.257-11.983l11.141-3.1a28.708,28.708,0,0,0,30.677,0l11.141,3.1a12.515,12.515,0,0,1,9.257,11.983v4.316h.032A5.043,5.043,0,0,1,113.384,254.014Z"/><path class="cls-2" d="M201,287.065l-7.8-2.226a28.18,28.18,0,1,0-40.391.016l-7.8,2.226a17.907,17.907,0,0,0-13,17.233v4.436A10.26,10.26,0,0,0,142.25,319h61.5A10.26,10.26,0,0,0,214,308.75v-4.436A17.941,17.941,0,0,0,201,287.065Zm-51.058-21.877A23.062,23.062,0,1,1,173,288.25,23.068,23.068,0,0,1,149.937,265.188Zm53.446,48.826H142.111a5.125,5.125,0,0,1-5.125-5.125v-4.178a12.515,12.515,0,0,1,9.257-11.983l11.141-3.1a28.708,28.708,0,0,0,30.677,0l11.141,3.1a12.515,12.515,0,0,1,9.257,11.983v4.316h.032A5.043,5.043,0,0,1,203.384,314.014Z"/><path class="cls-2" d="M291,125.065l-7.8-2.226a28.18,28.18,0,1,0-40.391.016l-7.8,2.226a17.907,17.907,0,0,0-13,17.233v4.436A10.26,10.26,0,0,0,232.25,157h61.5A10.26,10.26,0,0,0,304,146.75v-4.436A17.941,17.941,0,0,0,291,125.065Zm-51.058-21.877A23.062,23.062,0,1,1,263,126.25,23.068,23.068,0,0,1,239.937,103.188Zm53.446,48.826H232.111a5.125,5.125,0,0,1-5.125-5.125v-4.178a12.515,12.515,0,0,1,9.257-11.983l11.141-3.1a28.708,28.708,0,0,0,30.677,0l11.141,3.1a12.515,12.515,0,0,1,9.257,11.983v4.316h.032A5.043,5.043,0,0,1,293.384,152.014Z"/><path class="cls-2" d="M291,227.065l-7.8-2.226a28.18,28.18,0,1,0-40.391.016l-7.8,2.226a17.907,17.907,0,0,0-13,17.233v4.436A10.26,10.26,0,0,0,232.25,259h61.5A10.26,10.26,0,0,0,304,248.75v-4.436A17.941,17.941,0,0,0,291,227.065Zm-51.058-21.877A23.062,23.062,0,1,1,263,228.25,23.068,23.068,0,0,1,239.937,205.188Zm53.446,48.826H232.111a5.125,5.125,0,0,1-5.125-5.125v-4.178a12.515,12.515,0,0,1,9.257-11.983l11.141-3.1a28.708,28.708,0,0,0,30.677,0l11.141,3.1a12.515,12.515,0,0,1,9.257,11.983v4.316h.032A5.043,5.043,0,0,1,293.384,254.014Z"/></g></g></svg>